<?xml version="1.0" encoding="utf-8"?>
<!-- Generator: Adobe Illustrator 26.3.1, SVG Export Plug-In . SVG Version: 6.00 Build 0)  -->
<svg version="1.1" id="Layer_1" xmlns="http://www.w3.org/2000/svg" xmlns:xlink="http://www.w3.org/1999/xlink" x="0px" y="0px"
	 viewBox="0 0 480.2 78.4" style="enable-background:new 0 0 480.2 78.4;" xml:space="preserve">
<style type="text/css">
	.st0{fill:#FFFFFF;}
	.st1{fill:#E84E1B;}
</style>
<g>
	<path class="st0" d="M36.3,64.9c-2.3,1.1-6.8,2.3-12.6,2.3C10.2,67.1,0,58.6,0,42.9c0-15,10.2-25.1,25-25.1c6,0,9.7,1.3,11.4,2.1
		l-1.5,5c-2.3-1.1-5.7-2-9.7-2C14,23,6.5,30.2,6.5,42.7C6.5,54.4,13.3,62,24.9,62c3.8,0,7.6-0.8,10.1-2L36.3,64.9z"/>
	<path class="st0" d="M50.2,18.6v28.3c0,10.7,4.8,15.3,11.1,15.3c7.1,0,11.6-4.7,11.6-15.3V18.6h6.2v27.9c0,14.7-7.7,20.7-18.1,20.7
		c-9.8,0-17.2-5.6-17.2-20.4V18.6H50.2z"/>
	<path class="st0" d="M90,19.2c3.1-0.6,7.6-1,11.9-1c6.6,0,10.9,1.2,13.8,3.9c2.4,2.1,3.8,5.4,3.8,9.1c0,6.3-4,10.5-9,12.2v0.2
		c3.7,1.3,5.9,4.7,7,9.7c1.6,6.7,2.7,11.3,3.7,13.1h-6.4c-0.8-1.3-1.8-5.5-3.2-11.4c-1.4-6.6-4-9.1-9.6-9.3h-5.8v20.7H90V19.2z
		 M96.1,41h6.3c6.6,0,10.8-3.6,10.8-9.1c0-6.2-4.5-8.9-11-8.9c-3,0-5.1,0.3-6.1,0.6V41z"/>
	<path class="st0" d="M134.3,18.6v47.9h-6.2V18.6H134.3z"/>
	<path class="st0" d="M186,42c0,16.5-10,25.2-22.2,25.2c-12.6,0-21.5-9.8-21.5-24.3c0-15.2,9.4-25.1,22.2-25.1
		C177.6,17.8,186,27.8,186,42z M148.9,42.8c0,10.2,5.5,19.4,15.3,19.4c9.8,0,15.3-9,15.3-19.9c0-9.5-5-19.5-15.3-19.5
		C154,22.8,148.9,32.3,148.9,42.8z"/>
	<path class="st0" d="M200.2,18.6v28.3c0,10.7,4.8,15.3,11.1,15.3c7.1,0,11.6-4.7,11.6-15.3V18.6h6.2v27.9
		c0,14.7-7.7,20.7-18.1,20.7c-9.8,0-17.2-5.6-17.2-20.4V18.6H200.2z"/>
	<path class="st0" d="M239.1,58.9c2.8,1.7,6.8,3.1,11.1,3.1c6.3,0,10-3.3,10-8.2c0-4.5-2.6-7-9-9.5c-7.8-2.8-12.6-6.8-12.6-13.6
		c0-7.5,6.2-13,15.5-13c4.9,0,8.4,1.1,10.6,2.3l-1.7,5c-1.6-0.9-4.8-2.3-9.1-2.3c-6.5,0-9,3.9-9,7.2c0,4.5,2.9,6.7,9.5,9.2
		c8.1,3.1,12.2,7,12.2,14.1c0,7.4-5.5,13.8-16.8,13.8c-4.6,0-9.7-1.3-12.2-3.1L239.1,58.9z"/>
	<path class="st0" d="M365.3,18.6h25.8v5.2h-19.6v15.9h18.1v5.1h-18.1v21.7h-6.2V18.6z"/>
	<path class="st0" d="M440.8,42c0,16.5-10,25.2-22.2,25.2c-12.6,0-21.5-9.8-21.5-24.3c0-15.2,9.4-25.1,22.2-25.1
		C432.3,17.8,440.8,27.8,440.8,42z M403.6,42.8c0,10.2,5.5,19.4,15.3,19.4c9.8,0,15.3-9,15.3-19.9c0-9.5-5-19.5-15.3-19.5
		C408.7,22.8,403.6,32.3,403.6,42.8z"/>
	<path class="st0" d="M473.1,66.4L467,55.9c-2.5-4-4-6.7-5.5-9.4h-0.1c-1.3,2.8-2.7,5.3-5.2,9.5l-5.8,10.5h-7.1l14.6-24.2
		l-14.1-23.6h7.2l6.3,11.2c1.8,3.1,3.1,5.5,4.4,8.1h0.2c1.3-2.8,2.6-5,4.3-8.1l6.5-11.2h7.1l-14.6,23.3l14.9,24.6H473.1z"/>
</g>
<g>
	<g>
		<path class="st1" d="M309.5,10.6c0.9-6,5-4.5,5.9-10.6c-13.1,2.7-25.6,9.3-31.9,21.1c-6.3,11.8-7.1,26.4-2.2,38.9
			c2.5,6.2,6.6,12.1,12.4,15.5c6.4,3.7,14.1,2.8,21.5,2.9c22.3,0.3,32.2-11.7,36.2-28.3c3.7-15.6,2.9-33.2-8.5-44.4
			c-2.1,1.4-2.8,4.3-2.6,6.8s1,5,1.1,7.6c0.5,8.4-6.1,15.3-11.9,21.4c-5.9,6-11.9,13.8-10.1,22c3-10.6-1.8-23-11.2-28.8
			c-2-1.2-4.3-2.5-4.6-4.8c-0.4-3.5,4.2-5.1,7.7-4.9c3.5,0.2,9.3-1.9,11.2-4.9C319.6,17.3,312.3,13.2,309.5,10.6"/>
	</g>
	<g>
		<path class="st0" d="M306.9,14.6"/>
		<g>
			<path class="st0" d="M306.9,15.7c1.4,0,1.4-2.1,0-2.1C305.5,13.6,305.5,15.7,306.9,15.7L306.9,15.7z"/>
		</g>
	</g>
	<g>
		<path class="st0" d="M349.8,39.4c1-2.2,2.4-4.4,2.7-6.8c0.3-2.4,0.1-4.8-0.4-7.2c-0.2-0.9-0.5-1.8-0.6-2.8c-0.1-0.7-0.3-1.3-0.5-2
			c-0.6-1.7-1.3-3.4-2-5.1c-1-2.3-2.4-4.3-3.9-6.3c-0.5-0.7-2.1-2.3-2.1-2.3c-0.7,0.7-1.3,1.6-1.7,2.6c-0.6,1.7-0.5,3.6-0.3,5.4
			c0.3,1.8,0.6,3.6,0.7,5.4c0.2,2.3-0.2,4.7-1.2,7c-0.4,1-0.9,2-1.3,3c-0.3,0.8-0.5,1.5-0.4,2.4c0.2,2.1,0.1,4.2,0.1,6.3
			c0.9-1.5,1.8-3,2.7-4.5c0.3,1.6,0.6,3.3,0.8,4.9c1.1-3,1.9-3.3,3-6.3c0.2,3.8,0.7,4.8,0.9,8.6c0.8-1.3,1.7-2.7,2.5-4
			C349.2,38.2,349.5,38.8,349.8,39.4z"/>
	</g>
	<g>
		<path class="st0" d="M286.7,68.5c-0.8-6.1,0.5-12.4,2.8-18.1c2.3-5.7,5.5-11.1,8.7-16.3c2.3-3.8,5-7.9,9.2-9.5
			c2.4-0.9,5.1-0.8,7.6-1.3s5.2-1.5,6.4-3.8c-8.3,1.9-17.7-1.1-25.3,2.9c-5.3,2.9-8.3,8.6-11,14l2.4-1l-2,5.7l1.2-0.4l-6.4,14.8
			l0.7,1.7c1.3,3.4,2.9,6.6,4.8,9.7L286.7,68.5z"/>
	</g>
</g>
</svg>
